<?xml version="1.0" standalone="no"?>
<!DOCTYPE svg PUBLIC "-//W3C//DTD SVG 20010904//EN"
 "http://www.w3.org/TR/2001/REC-SVG-20010904/DTD/svg10.dtd">
<svg version="1.0" xmlns="http://www.w3.org/2000/svg"
 width="256.000000pt" height="256.000000pt" viewBox="0 0 256.000000 256.000000"
 preserveAspectRatio="xMidYMid meet">
<metadata>
Created by potrace 1.15, written by Peter Selinger 2001-2017
</metadata>
<g transform="translate(0.000000,256.000000) scale(0.100000,-0.100000)"
fill="#000000" stroke="none">
<path d="M42 2268 c12 -34 1235 -2147 1243 -2147 12 0 171 277 169 295 -1 6
-241 428 -534 938 l-532 926 -175 0 c-128 0 -174 -3 -171 -12z"/>
<path d="M768 2248 c11 -18 210 -364 442 -768 232 -404 425 -738 429 -742 5
-6 891 1520 891 1536 0 3 -105 6 -234 6 l-233 0 -214 -370 c-118 -203 -216
-370 -219 -370 -3 0 -100 166 -216 368 l-212 367 -227 3 -227 2 20 -32z"/>
</g>
</svg>
